<?xml version="1.0" encoding="UTF-8" standalone="no"?>
<!-- Created with Inkscape (http://www.inkscape.org/) -->

<svg
   width="32"
   height="32"
   viewBox="0 0 8.4666666 8.4666666"
   version="1.1"
   id="svg1"
   xmlns="http://www.w3.org/2000/svg"
   xmlns:svg="http://www.w3.org/2000/svg">
  <defs
     id="defs1">
    <pattern
       id="EMFhbasepattern"
       patternUnits="userSpaceOnUse"
       width="6"
       height="6"
       x="0"
       y="0" />
  </defs>
  <g
     id="layer1">
    <path
       style="fill:#372e31;fill-opacity:1;stroke-width:0.264583"
       d="M -0.11526402,0.62871286 3.2273928,-0.54488447 3.9294554,-0.27244225 3.9923267,0.47153464 4.5791254,0.80684819 4.5686479,1.414604 4.0866348,1.529868 3.4788789,1.9175742 3.5312717,2.2843234 -0.04191419,4.2333333 Z"
       id="path24" />
    <path
       style="fill:#d9a670;fill-opacity:1;stroke-width:0.264583"
       d="M -0.01047855,3.6465345 0.95354784,2.7453796 2.7977721,2.1690594 2.6720297,1.8023102 2.3786303,1.4041254 0.98498349,1.760396 0.45057755,2.0118812 -0.07334983,2.4834158 Z"
       id="path26" />
    <path
       style="fill:#d9a670;fill-opacity:1;stroke-width:0.264583"
       d="M -0.10478548,0.60775577 3.2797855,-0.59727721 3.9399339,-0.31435643 3.9818481,0.46105611 4.2228547,0.60775577 4.589604,1.1526402 4.5476898,1.4250825 3.7513201,1.6975247 3.8351486,0.89067655 3.269307,1.1526402 3.0073433,1.089769 2.640594,1.1526402 2.3471947,1.1316831 -0.01047855,2.1481023 Z"
       id="path25" />
    <path
       style="fill:#d3b599;fill-opacity:1;stroke-width:0.264583"
       d="M 3.015647,0.94100043 3.3416629,0.58534672 3.475033,0.40751987 3.8825529,-0.43715767 2.8081824,0.0148189 Z"
       id="path27" />
    <path
       style="fill:#d3b599;fill-opacity:1;stroke-width:0.264583"
       d="M 4.3863958,1.2818352 4.0677893,1.0373233 4.0603797,0.90395315 4.1344744,0.84467754 4.0677893,0.63721289 4.178931,0.59275617 4.3271201,0.61498453 5.1273408,0.14818904 4.6012697,1.1336462 Z"
       id="path28" />
    <path
       style="fill:#99735c;stroke-width:0.264583;fill-opacity:1"
       d="M 6.0757508,7.1427119 5.8534672,6.031294 5.7349159,5.6460024 3.3342535,4.4901281 2.6674027,5.6756402 5.112522,7.4835466 Z"
       id="path13" />
    <path
       style="fill:#545449;fill-opacity:1;stroke-width:0.264583"
       d="M 3.6046203,2.2843234 -0.12574257,2.8920792 -0.25148515,4.8410891 Z"
       id="path23" />
    <path
       style="fill:#858563;fill-opacity:1;stroke-width:0.264583"
       d="M -0.02963781,4.3863958 0.88913426,3.4676236 3.2305212,2.3413869 3.9862852,2.2228356 5.0236085,2.326568 5.8979238,2.6970405 6.7277826,3.423167 6.7870582,3.6009937 7.2168064,4.2233879 7.1575307,4.8457818 7.2019876,5.112522 6.8907905,5.9275617 5.8470297,6.5805279 -0.10478548,5.9308581 Z"
       id="path21" />
    <path
       style="fill:#683c3d;fill-opacity:1;stroke-width:0.264583"
       d="M -0.035776,7.5315991 1.0756418,7.5019613 2.0240517,6.924024 2.4537999,6.8795674 2.5871701,6.7461973 2.2166974,5.3976769 0.15686975,5.8867007 Z"
       id="path15" />
    <path
       style="fill:#8a4b25;stroke-width:0.264583;fill-opacity:1"
       d="M 1.8449536,4.6827738 2.9489619,5.2162543 4.4678996,6.0164752 5.6534121,6.2832154 5.8905145,6.1646641 5.801601,5.7052781 Z"
       id="path11" />
    <path
       style="fill:#b1a195;stroke-width:0.264583;fill-opacity:1"
       d="M 1.8745914,4.653136 4.423443,5.9868373 5.6756402,6.2683966 5.7867822,6.1572547 5.7645545,7.03157 5.4163102,7.6910114 4.8457826,8.0244367 4.7865069,7.735468 4.5049476,7.7132404 3.6009937,7.4613184 2.1042844,6.2906248 1.9412765,6.0275893 2.1561506,5.8942192 2.096875,5.5830223 2.015371,5.4014906 1.7412213,5.342215 1.1558745,5.4607663 Z"
       id="path12" />
    <path
       style="fill:#a08279;stroke-width:0.264583;fill-opacity:1"
       d="M 1.7782685,6.979704 2.2154262,7.261263 3.3268441,7.6317358 3.8770626,7.6493385 2.6091584,6.7377063 2.4519802,6.8529702 H 2.0957096 l -0.209571,0.062871 z"
       id="path16" />
    <path
       style="fill:#8c7c6e;stroke-width:0.264583;fill-opacity:1"
       d="M -0.02963781,5.7793728 0.47420495,6.5795934 0.07409452,8.0170273 -0.10373233,7.9577516 Z"
       id="path14" />
    <path
       style="fill:#bcae8c;fill-opacity:1;stroke-width:0.264583"
       d="M 1.2259901,3.6046203 2.3681518,2.6091584 3.2064356,2.5043729 4.1495048,2.7558582 5.1135314,3.730363 6.4966995,4.0866337 6.6433993,4.2333333 5.3650165,4.4009899 4.2962046,4.3381189 3.960891,4.1495048 3.2902641,3.1540428 3.1645214,3.1121286 3.0283004,3.2169142 2.7139439,3.269307 2.4006625,3.1267889 2.326568,3.4824426 2.6081272,3.9418286 3.0675132,4.178931 2.7563162,4.5049469 2.8748675,5.0532463 1.6152606,4.653136 Z"
       id="path17" />
    <path
       style="fill:#dec099;fill-opacity:1;stroke-width:0.264583"
       d="M 3.2008834,4.2678445 2.8155918,4.4308524 2.8452296,5.0680654 4.0307421,4.934695 5.1273408,5.571908 5.7793728,5.7349159 6.0016561,6.4906802 6.9056093,5.9423807 7.2019876,5.1866164 7.1501213,4.8161439 7.1649407,4.5271753 6.6610981,4.1863404 5.7867827,4.2678445 5.3718533,4.3641674 5.023609,4.3938052 4.2900734,4.3493483 3.9344197,4.178931 Z"
       id="path22" />
    <path
       style="fill:#dfb891;fill-opacity:1;stroke-width:0.264583"
       d="M 2.4512574,5.073677 H 3.0291947 L 3.2588877,4.9254878 3.5774942,4.8513934 3.7627305,4.8143462 3.9627857,4.8588028 4.1035652,4.8439835 4.1924787,4.9773536 4.7363035,5.3126233 5.6741337,5.7055687 4.3800331,5.4855192 3.3059819,5.1344878 2.8958246,5.1477699 Z"
       id="path18" />
    <path
       style="fill:#8ca793;fill-opacity:1;stroke-width:0.264583"
       d="m 3.8232773,4.0603797 -0.5038426,-0.622394 -0.037047,0.1926458 0.00741,0.2000552 0.074094,0.1259607 0.1111417,0.1407797 0.1185513,0.044457 0.074094,-0.014819 z"
       id="path19" />
    <path
       style="display:inline;fill:#001b34;fill-opacity:1;stroke-width:0.400329"
       d="m 3.3563274,3.7075137 0.1017787,-0.045383 0.1163196,0.08428 0.067852,0.071314 0.082392,0.1231798 0.00969,0.090763 L 3.6277341,4.0900165 3.5598821,4.0576025 3.3999441,3.90849 3.3563241,3.817727 Z"
       id="path29" />
    <path
       style="fill:#a3bed0;fill-opacity:1;stroke-width:0.40814"
       d="m 3.5233919,3.9204602 -0.079551,-0.069792 -0.051474,-0.055834 0.00936,-0.083752 h 0.079551 l 0.070192,0.090731 0.042115,0.097709 -0.014039,0.034897 z"
       id="path30" />
    <path
       style="fill:#5e5031;fill-opacity:1;stroke-width:0.264583"
       d="m 6.1794831,4.5938603 -0.092618,0.018523 -0.074094,-0.074095 0.022228,-0.1111417 0.1111417,-0.066685 0.1444842,0.0037 0.085209,0.081504 0.022228,0.088914 L 6.361015,4.771682 6.2424637,4.845777 H 6.0572255 l 0.044457,-0.1111419 0.1148463,-0.044457 0.00741,-0.06298 z"
       id="path20" />
    <path
       style="fill:#f9e4d2;stroke-width:0.264583;fill-opacity:1"
       d="m 5.5876856,7.3166459 0.1493192,-0.309117 0.3536511,0.568461 z"
       id="path7" />
    <path
       style="fill:#dec099;stroke-width:0.264583;fill-opacity:1"
       d="m 3.6343362,7.03157 0.014819,0.3371302 0.011115,0.1889411 -0.040752,0.014819 0.3686202,0.8039256 0.290821,-1.1577269 -0.112994,-0.061128 -0.2593309,0.00556 z"
       id="path8" />
    <path
       style="fill:#fee4cb;stroke-width:0.264583;fill-opacity:1"
       d="M 2.9489619,7.0389797 3.2638637,6.7166685 3.3453675,6.342491 3.1527218,6.2461682 2.9193241,6.2683958 2.8822769,6.3424903 Z"
       id="path9" />
    <path
       style="fill:#dbc688;stroke-width:0.264583;fill-opacity:1"
       d="m 5.9544349,2.6563119 -0.5579827,-0.7125413 -0.130982,0.5029703 -0.07597,0.036675 0.1074052,0.151939 z"
       id="path3" />
    <path
       style="fill:#e7d097;stroke-width:0.264583;fill-opacity:1"
       d="M 5.0291655,2.3302727 4.6309076,1.454105 4.071494,2.2117215 4.1029842,2.3339774 4.178931,2.4377098 4.3993622,2.3321251 Z"
       id="path4" />
    <path
       style="fill:#ece4a4;stroke-width:0.264583;fill-opacity:1"
       d="M 3.2169142,2.4912747 2.056415,1.6870462 2.4205445,2.5803424 2.5567656,2.6929868 h 0.3169761 z"
       id="path6" />
    <path
       style="fill:#edc09c;fill-opacity:1;stroke-width:0.273249"
       d="M 6.5573653,4.0457467 6.9001716,3.8879173 7.465023,3.5083756 7.1728585,4.5568131 6.6820219,4.2336388 6.6898119,4.10963 Z"
       id="path2" />
    <path
       style="fill:#fef8d6;stroke-width:0.264583;fill-opacity:1"
       d="M 5.7029495,2.842306 5.946576,2.6589315 6.1718647,2.4467409 6.3735767,2.2424092 6.9472772,1.2155115 6.9708542,2.74276 6.7403262,3.4029083 5.8915638,3.167141 Z"
       id="path1" />
    <path
       style="fill:#fefcba;stroke-width:0.264583;fill-opacity:1"
       d="M 3.5750605,3.0415801 3.6269268,2.5451468 3.8232773,2.1302175 4.2419113,2.8081824 3.8973717,3.1675408 3.7640016,3.1768012 Z"
       id="path5" />
  </g>
</svg>
